<?xml version="1.0" standalone="no"?>
<!DOCTYPE svg PUBLIC "-//W3C//DTD SVG 20010904//EN"
 "http://www.w3.org/TR/2001/REC-SVG-20010904/DTD/svg10.dtd">
<svg version="1.0" xmlns="http://www.w3.org/2000/svg"
 width="1976.000000pt" height="960.000000pt" viewBox="0 0 1976.000000 960.000000"
 preserveAspectRatio="xMidYMid meet">

<g transform="translate(0.000000,960.000000) scale(0.100000,-0.100000)"
fill="#000000" stroke="none">
<path d="M7273 9280 c-745 -73 -1345 -468 -1660 -1095 -150 -298 -213 -567
-213 -910 0 -339 67 -619 216 -903 242 -461 659 -818 1149 -980 137 -46 257
-73 430 -98 167 -25 544 -25 708 -1 444 66 778 228 1059 513 104 106 132 141
210 259 182 274 287 624 305 1013 l6 132 -826 0 -827 0 0 -190 0 -190 610 0
610 0 0 -22 c0 -35 -36 -175 -66 -258 -111 -311 -346 -574 -654 -734 -340
-177 -767 -223 -1189 -130 -335 75 -617 229 -857 468 -240 240 -388 512 -460
846 -27 121 -27 468 -1 590 97 455 376 842 774 1077 471 277 1005 327 1528
143 267 -94 561 -273 758 -460 l75 -70 143 135 c79 75 145 140 147 145 4 12
-194 180 -314 266 -337 240 -690 384 -1084 439 -137 19 -448 27 -577 15z"/>
<path d="M380 7280 l0 -1922 768 5 c815 5 869 7 1122 58 136 27 315 86 416
137 350 176 630 500 789 912 177 456 173 1098 -10 1570 -232 603 -720 994
-1372 1099 -272 44 -428 52 -1085 58 l-628 5 0 -1922z m1110 1530 c553 -31
834 -103 1105 -281 110 -72 287 -251 363 -367 175 -265 263 -579 262 -941 -2
-596 -269 -1069 -735 -1304 -270 -135 -590 -177 -1372 -177 l-373 0 0 1540 0
1540 288 0 c158 0 366 -5 462 -10z"/>
<path d="M4300 7280 l0 -1920 190 0 190 0 0 1920 0 1920 -190 0 -190 0 0
-1920z"/>
<path d="M10160 7280 l0 -1920 190 0 190 0 0 1920 0 1920 -190 0 -190 0 0
-1920z"/>
<path d="M11050 9010 l0 -190 428 -2 427 -3 3 -1727 2 -1728 190 0 190 0 0
1730 0 1730 430 0 430 0 0 190 0 190 -1050 0 -1050 0 0 -190z"/>
<path d="M15142 9138 c-16 -35 -180 -382 -364 -773 -185 -390 -575 -1218 -868
-1840 -293 -621 -536 -1138 -541 -1147 -9 -17 4 -18 204 -18 l213 0 295 625
294 625 835 0 835 0 295 -621 c162 -342 300 -623 305 -625 6 -3 99 -3 206 -2
l196 3 -891 1915 -891 1915 -47 3 -47 3 -29 -63z m403 -1448 c175 -371 320
-681 322 -687 4 -10 -130 -13 -651 -13 -361 0 -656 2 -656 5 0 2 138 296 306
652 169 356 315 668 326 692 11 24 24 39 28 35 5 -5 151 -313 325 -684z"/>
<path d="M17650 7280 l0 -1920 925 0 925 0 0 190 0 190 -735 0 -735 0 0 1730
0 1730 -190 0 -190 0 0 -1920z"/>
<path d="M7125 4159 c-215 -31 -442 -154 -576 -313 -69 -80 -149 -235 -174
-336 -83 -326 12 -671 252 -916 95 -97 245 -224 478 -403 280 -216 361 -286
510 -435 228 -230 315 -392 315 -588 0 -191 -91 -374 -244 -493 -200 -155
-487 -198 -707 -106 -182 76 -374 266 -509 504 l-44 76 -30 -18 c-17 -11 -90
-55 -163 -98 l-132 -79 39 -66 c169 -292 372 -503 590 -613 255 -129 573 -159
849 -79 345 100 624 373 728 711 25 81 27 102 27 263 1 155 -2 184 -22 255
-75 255 -247 493 -536 742 -61 53 -225 181 -365 286 -424 317 -478 365 -576
511 -78 117 -114 295 -85 425 39 176 187 322 371 366 144 34 314 10 452 -62
82 -43 233 -185 335 -315 l60 -77 156 119 155 118 -36 48 c-122 162 -260 305
-377 391 -203 149 -485 219 -741 182z"/>
<path d="M11990 4159 c-779 -86 -1406 -583 -1674 -1327 -35 -97 -71 -243 -93
-377 -27 -167 -24 -487 6 -660 75 -425 258 -766 582 -1081 172 -167 341 -285
542 -379 536 -250 1252 -243 1771 17 198 99 352 213 527 387 320 321 498 670
565 1112 24 156 24 462 0 619 -66 442 -245 799 -556 1110 -314 313 -677 496
-1125 565 -124 19 -431 27 -545 14z m533 -388 c138 -28 285 -79 418 -145 464
-232 770 -629 872 -1131 30 -150 32 -496 3 -650 -123 -667 -615 -1162 -1288
-1297 -152 -31 -461 -33 -613 -4 -221 41 -453 138 -628 263 -196 140 -404 377
-510 581 -115 221 -166 424 -174 693 -11 324 43 577 178 839 245 474 704 797
1239 870 111 15 381 5 503 -19z"/>
<path d="M1254 4063 c3 -10 372 -873 820 -1918 l815 -1900 42 0 43 0 292 670
c160 369 409 942 554 1275 144 333 382 880 527 1215 146 336 272 625 279 643
l14 32 -208 0 -208 0 -10 -27 c-6 -16 -164 -379 -351 -808 -187 -429 -472
-1083 -634 -1454 -221 -509 -295 -670 -303 -659 -5 9 -292 674 -636 1479
l-627 1464 -207 3 c-195 2 -207 1 -202 -15z"/>
<path d="M5230 2160 l0 -1920 190 0 190 0 0 1920 0 1920 -190 0 -190 0 0
-1920z"/>
<path d="M9100 2160 l0 -1920 190 0 190 0 0 1920 0 1920 -190 0 -190 0 0
-1920z"/>
<path d="M15010 2160 l0 -1920 195 0 195 0 2 1452 3 1452 1263 -1449 1263
-1450 45 -3 44 -3 0 1920 0 1921 -190 0 -190 0 -2 -1465 -3 -1466 -480 554
c-264 304 -835 963 -1270 1464 l-790 912 -42 0 -43 1 0 -1920z"/>
</g>
</svg>
